<?xml version="1.0" encoding="UTF-8" standalone="no"?>
<svg width="95px" height="95px" viewBox="0 0 95 95" version="1.1" xmlns="http://www.w3.org/2000/svg" xmlns:xlink="http://www.w3.org/1999/xlink">
    <!-- Generator: Sketch 41.2 (35397) - http://www.bohemiancoding.com/sketch -->
    <title>placeholder-restaurant</title>
    <desc>Created with Sketch.</desc>
    <defs></defs>
    <g id="Page-1" stroke="none" stroke-width="1" fill="none" fill-rule="evenodd">
        <g id="Assets" transform="translate(-35.000000, -36.000000)">
            <g id="placeholder-restaurant" transform="translate(35.000000, 36.000000)">
                <rect id="Rectangle-4" fill="#DFE5E7" x="0" y="0" width="95" height="95"></rect>
                <g id="noun_592541_cc" transform="translate(22.000000, 25.000000)" fill="#FFFFFF">
                    <path d="M24.9960937,9.23043103 C32.3734375,9.22965517 38.3734375,15.170431 38.3648437,22.4674138 C38.35625,29.8280172 32.3296875,35.7982759 24.9398437,35.7687931 C17.5765625,35.7393103 11.625,29.7861207 11.634375,22.4596552 C11.6445312,15.1316379 17.6039062,9.2312069 24.9960937,9.23043103 Z M24.9875,12.7838793 C19.5804687,12.785431 15.2148437,17.1341379 15.215625,22.517069 C15.2171875,27.8301724 19.6398437,32.2168966 24.996875,32.2168966 C30.3390625,32.2168966 34.7804687,27.81 34.7828125,22.5069828 C34.7859375,17.1512069 30.384375,12.7823276 24.9875,12.7838793 Z" id="Shape"></path>
                    <path d="M24.959375,30.2221552 C20.6367188,30.2081897 17.1625,26.7268966 17.184375,22.4317241 C17.20625,18.1644828 20.7320313,14.7305172 25.0734375,14.7491379 C29.3226563,14.7669828 32.81875,18.2723276 32.8007813,22.4968966 C32.7835938,26.7943966 29.2914063,30.2353448 24.959375,30.2221552 Z" id="Shape"></path>
                    <path d="M49.2554687,9.05198276 C49.2617187,7.67017241 49.2710937,6.28758621 49.2570312,4.90577586 C49.2460937,3.7737931 49.3585937,2.43931034 48.4648437,1.5687931 C44.6875,-2.10646552 42.8320312,6.85784483 42.4859375,9.03103448 C42.1304687,11.2647414 41.8351562,13.5100862 41.5867187,15.7577586 C41.5710937,15.8981897 41.5554687,16.0386207 41.5414062,16.1790517 C41.45,17.1007759 41.09375,21.8622414 41.4921875,23.1362069 C42.0179687,24.8143966 42.896875,25.790431 44.2578125,26.2086207 C44.5179687,26.2885345 44.8023437,26.3397414 45.103125,26.3940517 C45.25625,26.4219828 45.4125,26.4499138 45.571875,26.4825 L46.046875,26.5802586 L45.9953125,27.0589655 C45.95625,27.4267241 45.9171875,27.7913793 45.8789062,28.1544828 C45.7945312,28.9567241 45.7140625,29.7139655 45.6265625,30.4890517 C45.5421875,31.2416379 45.4546875,31.9934483 45.3671875,32.7452586 C45.234375,33.885 45.0976562,35.0643103 44.9726562,36.2234483 C44.8578125,37.2902586 44.7492187,38.3772414 44.64375,39.4285345 C44.5335937,40.5287069 44.4195312,41.6661207 44.2984375,42.7841379 C44.2523437,43.2100862 44.3648437,43.5980172 44.6148437,43.8773276 C44.8554687,44.1457759 45.2117187,44.2955172 45.6195312,44.2986207 C46.0210937,44.3025 46.4226562,44.3056034 46.8234375,44.3056034 C47.2546875,44.3056034 47.634375,44.3017241 47.984375,44.2939655 C48.6625,44.2784483 49.1484375,43.8362069 49.221875,43.1681897 C49.2523437,42.8958621 49.2664062,42.6243103 49.265625,42.362069 C49.2617187,41.0981897 49.2554687,39.8350862 49.2484375,38.5712069 C49.2382812,36.6012931 49.228125,34.5646552 49.2273437,32.5613793 C49.2234375,27.0643966 49.2265625,21.2035345 49.2367187,14.1175862 C49.240625,12.4277586 49.2484375,10.7115517 49.2554687,9.05198276 Z" id="Shape"></path>
                    <path d="M8.94296875,39.8940517 C8.94609375,40.6543966 8.33984375,41.2130172 7.5015625,41.2223276 C7.21953125,41.225431 6.93828125,41.2238793 6.65625,41.2231034 C6.403125,41.2223276 6.15078125,41.2223276 5.89765625,41.2231034 C5.625,41.2238793 5.353125,41.2246552 5.0796875,41.2223276 C4.64296875,41.2176724 4.25546875,41.0718103 3.99140625,40.8111207 C3.7421875,40.5675 3.61875,40.2447414 3.634375,39.8769828 C3.7109375,38.0630172 3.809375,36.2164655 3.9046875,34.4319828 C3.94296875,33.7112069 3.98046875,32.990431 4.0171875,32.2712069 C4.03984375,31.8499138 4.06015625,31.4286207 4.08046875,31.0073276 C4.12890625,30.0328448 4.17890625,29.025 4.2390625,28.0357759 C4.36875,25.902931 4.509375,23.7949138 4.64296875,21.8343103 C4.74140625,20.3919828 4.85078125,18.9256034 4.95703125,17.5073276 L4.96796875,17.3668966 C4.9765625,17.2489655 4.984375,17.1310345 4.99140625,17.0131034 C5.00703125,16.7733621 5.021875,16.5413793 5.046875,16.3156034 L7.4828125,16.3156034 C7.61640625,17.6244828 7.73359375,18.9100862 7.8296875,20.1437069 C7.9609375,21.807931 8.08515625,23.5823276 8.21171875,25.5700862 C8.28359375,26.6919828 8.3421875,27.8332759 8.39921875,28.9388793 C8.41875,29.3066379 8.4375,29.6751724 8.45625,30.0437069 C8.5875,32.5156034 8.71796875,34.9875 8.84453125,37.4593966 C8.85234375,37.6099138 8.8609375,37.7619828 8.86875,37.9132759 C8.90390625,38.5642241 8.93984375,39.2376724 8.94296875,39.8940517 Z" id="Shape"></path>
                    <path d="M5.32578125,12.9499138 L5.32578125,12.3975 C5.3265625,8.90456897 5.3265625,5.41241379 5.328125,1.91948276 C5.328125,1.32594828 5.58046875,0.958189655 6.03828125,0.861206897 C6.6875,0.723103448 7.1859375,1.09862069 7.23125,1.78448276 C7.25703125,2.16931034 7.23984375,2.55646552 7.23984375,2.94284483 C7.240625,6.0975 7.23984375,9.25215517 7.23984375,12.4068103 L7.23984375,12.9266379 C8.36015625,12.7862069 9.52109375,11.6767241 9.7890625,10.4322414 C9.90859375,9.87672414 9.9125,9.28008621 9.87265625,8.70905172 C9.7125,6.43112069 9.5125,4.1562931 9.33203125,1.87913793 C9.27890625,1.20568966 9.6640625,0.71612069 10.2492187,0.694396552 C10.8140625,0.672672414 11.2,1.10327586 11.2507812,1.76431034 C11.4304687,4.12137931 11.5898437,6.48077586 11.8148437,8.83396552 C12.1375,12.2097414 9.52109375,15.1153448 6.171875,15.0455172 C3.08984375,14.9818966 0.5828125,12.4044828 0.73984375,9.35534483 C0.87109375,6.80275862 1.1125,4.25482759 1.31953125,1.70689655 C1.375,1.02103448 1.8,0.636206897 2.36015625,0.70137931 C2.94296875,0.769655172 3.24453125,1.18706897 3.19296875,1.89543103 C3.01484375,4.33318966 2.8375,6.77172414 2.64140625,9.2087069 C2.5125,10.8100862 3.47734375,12.3377586 4.9984375,12.8800862 C5.08515625,12.9103448 5.1796875,12.9188793 5.32578125,12.9499138 Z" id="Shape"></path>
                </g>
            </g>
        </g>
    </g>
</svg>