<?xml version="1.0" encoding="UTF-8" standalone="no"?>
<svg width="95px" height="129px" viewBox="0 0 95 129" version="1.1" xmlns="http://www.w3.org/2000/svg" xmlns:xlink="http://www.w3.org/1999/xlink">
    <!-- Generator: Sketch 41.2 (35397) - http://www.bohemiancoding.com/sketch -->
    <title>placeholder-attraction</title>
    <desc>Created with Sketch.</desc>
    <defs></defs>
    <g id="Page-1" stroke="none" stroke-width="1" fill="none" fill-rule="evenodd">
        <g id="Assets" transform="translate(-154.000000, -36.000000)">
            <g id="placeholder-attraction" transform="translate(154.000000, 36.000000)">
                <rect id="Rectangle-4-Copy" fill="#DFE5E7" x="0" y="0" width="95" height="129"></rect>
                <path d="M49.7478072,61.9001053 C49.9461687,60.6156053 48.8445542,59.5266053 47.5445783,59.7231053 C46.7344337,59.8451053 46.0720482,60.4991053 45.9485783,61.2996053 C45.7502169,62.5846053 46.8518313,63.6731053 48.1518072,63.4771053 C48.9619518,63.3546053 49.6243373,62.7006053 49.7478072,61.9001053 L49.7478072,61.9001053 Z M39.4481928,84.1001053 L40.7638554,80.9501053 C42.9903614,81.7501053 45.3686747,82.2001053 47.8481928,82.2001053 C50.3277108,82.2001053 52.7060241,81.7501053 54.9325301,80.9501053 L56.2481928,84.1001053 L39.4481928,84.1001053 Z M44.053012,61.6001053 C44.053012,59.1966053 46.4176627,57.2741053 48.945759,58.0086053 C50.1556627,58.3596053 51.1272289,59.3201053 51.4829639,60.5156053 C52.2258072,63.0136053 50.2806506,65.3501053 47.8481928,65.3501053 C45.773494,65.3501053 44.053012,63.7001053 44.053012,61.6001053 L44.053012,61.6001053 Z M46.9373494,66.3501053 L46.9373494,78.5001053 L48.860241,78.5001053 L48.860241,66.3501053 L53.5662651,77.6001053 L54.2746988,79.3001053 C52.3012048,80.0001053 50.1253012,80.4001053 47.8987952,80.4001053 C45.6722892,80.4001053 43.4963855,79.9501053 41.4722892,79.2501053 L42.1807229,77.5501053 L46.9373494,66.3501053 Z M28.8722892,61.6001053 C28.8722892,50.7576053 38.2018554,42.0551053 49.3556386,42.9076053 C58.7282169,43.6241053 66.2441928,51.2031053 66.7906988,60.4756053 C67.2613012,68.4566053 62.6873494,75.3511053 55.9951807,78.5001053 L50.5807229,65.6001053 L59.2843373,74.2001053 L60.6506024,72.8501053 L51.8963855,64.3001053 L63.2819277,68.9501053 L63.9903614,67.2001053 L52.6048193,62.5501053 L64.9012048,62.5501053 L64.9012048,60.6501053 L52.6554217,60.6501053 L64.0409639,56.0001053 L63.2819277,54.3001053 L51.8963855,58.9501053 L60.6,50.3501053 L59.2337349,49.0001053 L50.5807229,57.6001053 L55.286747,46.3501053 L53.5156627,45.6501053 L48.8096386,56.9001053 L48.8096386,44.7501053 L46.886747,44.7501053 L46.886747,56.9001053 L42.1807229,45.6501053 L40.460241,46.4001053 L45.1662651,57.6501053 L36.4626506,49.0001053 L35.0963855,50.3501053 L43.8,58.9501053 L32.4650602,54.3001053 L31.7566265,56.0501053 L43.1421687,60.7001053 L30.7951807,60.7001053 L30.7951807,62.6001053 L43.0915663,62.6001053 L31.7060241,67.2501053 L32.4144578,69.0001053 L43.8,64.3001053 L35.0963855,72.9001053 L36.4626506,74.2501053 L45.1662651,65.6501053 L39.7518072,78.5501053 C33.3253012,75.5001053 28.8722892,69.1001053 28.8722892,61.6001053 L28.8722892,61.6001053 Z M56.7036145,80.2501053 C64.1548193,76.7791053 69.2550361,69.1046053 68.706506,60.3096053 C68.0724578,50.1321053 59.801494,41.8321053 49.512,41.0606053 C37.3066988,40.1451053 27,49.7226053 27,61.6001053 C27,69.8501053 31.9084337,76.9501053 39.0433735,80.2501053 L37.4240964,84.1001053 L28.8722892,84.1001053 L28.8722892,86.0001053 L66.8240964,86.0001053 L66.8240964,84.1001053 L58.3228916,84.1001053 L56.7036145,80.2501053 Z" id="Fill-1-Copy" fill="#FFFFFF"></path>
            </g>
        </g>
    </g>
</svg>