<?xml version="1.0" encoding="UTF-8" standalone="no"?>
<svg width="120px" height="120px" viewBox="0 0 120 120" version="1.1" xmlns="http://www.w3.org/2000/svg" xmlns:xlink="http://www.w3.org/1999/xlink">
    <!-- Generator: Sketch 41.2 (35397) - http://www.bohemiancoding.com/sketch -->
    <title>beach-icon</title>
    <desc>Created with Sketch.</desc>
    <defs></defs>
    <g id="Page-1" stroke="none" stroke-width="1" fill="none" fill-rule="evenodd">
        <g id="Assets" transform="translate(-69.000000, -823.000000)" fill="#FFFFFF">
            <g id="beach-icon" transform="translate(69.000000, 823.000000)">
                <path d="M119.871269,114.210144 C119.435565,112.89903 118.018294,112.192378 116.707431,112.628088 L110.192487,114.799841 L106.116457,112.763559 C105.41333,112.411991 104.585749,112.411991 103.882622,112.763559 L100.00089,114.704449 L96.1191578,112.763559 C95.4122805,112.411991 94.5846995,112.411991 93.8815721,112.763559 L89.9998403,114.704449 L89.9998403,104.999766 C89.9998403,104.955702 89.9960902,104.911874 89.9925746,104.864295 C90.3882009,104.728824 90.7470303,104.501711 91.0327344,104.186706 L118.03306,74.677495 C120.823538,71.6233066 120.614944,66.8701073 117.564309,64.079595 C116.176569,62.8106689 114.378438,62.1129236 112.499916,62.1129236 C110.40155,62.1129236 108.383809,63.0009844 106.966538,64.5483523 L83.6831783,90 L60.0004419,90 L60.0004419,53.9246707 C61.2911493,53.3717714 64.2445187,52.5001172 70.0047726,52.5001172 C77.6695642,52.5001172 80.3538701,54.0437351 80.7750434,54.3219425 C81.1962167,54.8253879 81.6832496,55.0726574 82.3460644,55.129377 C83.0271604,55.1879717 83.5692716,54.8912483 84.0783358,54.4407725 C84.3237273,54.2652229 86.9531893,52.4998828 92.7024275,52.4998828 C98.22479,52.4998828 100.524485,54.1241269 100.795424,54.3327239 C101.494801,55.0632822 102.520195,55.250082 103.465198,54.8783575 C104.420983,54.5028829 104.999657,53.5269301 104.999657,52.4998828 C104.999657,39.8124971 100.059484,27.8830919 91.0875783,18.9129518 C82.7088781,10.5322739 71.7480597,5.67079173 60.0006762,5.06468851 L60.0006762,2.49941405 C60.0006762,1.11868935 58.8801256,0 57.4994178,0 C56.11871,0 55.0000343,1.11868935 55.0000343,2.49941405 L55.0000343,5.06468851 C43.2519477,5.67079173 32.2915981,10.5322739 23.9126635,18.9129518 C14.9405237,27.8833263 10.0003508,39.8127314 10.0003508,52.4998828 C10.0003508,53.5290395 10.5771496,54.5085079 11.5366841,54.8821075 C12.4814529,55.2535977 13.504972,55.0670323 14.2024744,54.334599 C14.4825534,54.1222519 16.8136551,52.4998828 22.5007837,52.4998828 C28.1825217,52.4998828 30.5136233,54.1185019 30.797218,54.334599 C31.2805009,54.8474195 31.8263621,55.1750809 32.5330051,55.1511742 C33.2307419,55.1328927 33.7543374,54.861951 34.2029327,54.3399897 C34.6128559,54.069048 37.3210682,52.4996484 45.0001567,52.4996484 C50.735098,52.4996484 53.6959674,53.3748184 54.9995656,53.9314677 L54.9995656,89.9995312 L17.5001418,89.9995312 C13.3641121,89.9995312 10.0003508,93.3649745 10.0003508,97.4991797 C10.0003508,101.633854 13.3641121,104.999297 17.5001418,104.999297 L19.9995252,104.999297 L19.9995252,114.70398 L19.9995252,114.70398 L16.1177933,112.76309 C15.414666,112.411522 14.58521,112.411522 13.8820826,112.76309 L9.80816261,114.799372 L3.29157805,112.627619 C1.98235487,112.191909 0.565084449,112.898561 0.129379849,114.209675 C-0.308199757,115.517039 0.400318266,116.934327 1.70954145,117.370037 L9.20933245,119.871326 C9.83933459,120.080158 10.5258213,120.032579 11.1190264,119.735855 L15.0007583,117.794966 L18.8824902,119.735855 C19.5856176,120.087423 20.4131985,120.087423 21.1182009,119.735855 L24.9999328,117.794966 L28.8816647,119.735855 C29.584792,120.087423 30.414248,120.087423 31.1173754,119.735855 L34.9991072,117.794966 L38.8808391,119.735855 C39.5858415,120.087423 40.4134224,120.087423 41.1165498,119.735855 L44.9999223,117.794966 L48.8816542,119.735855 C49.5847816,120.087423 50.4123625,120.087423 51.1173649,119.735855 L54.9990968,117.794966 L58.8808287,119.735855 C59.5839561,120.087423 60.413412,120.087423 61.1165394,119.735855 L64.9982713,117.794966 L68.8800032,119.735855 C69.5866462,120.087423 70.4142271,120.087423 71.1173545,119.735855 L75.0000239,117.795434 L78.8817558,119.736324 C79.2333194,119.912108 79.6179301,120 79.9987908,120 C80.3834015,120 80.7677778,119.912108 81.1193415,119.736324 L85.0010733,117.795434 L88.8828052,119.736324 C89.5859326,120.087892 90.4132792,120.087892 91.1164065,119.736324 L94.9981384,117.795434 L98.8798703,119.736324 C99.5867477,120.087892 100.414329,120.087892 101.117456,119.736324 L104.999188,117.795434 L108.88092,119.736324 C109.474125,120.033047 110.158971,120.080626 110.788973,119.871795 L118.288764,117.370506 C119.600331,116.934796 120.307208,115.517508 119.871269,114.210144 Z M60.0004419,48.6436507 L60.0004419,11.4001781 C62.2249025,12.6360568 65.3137411,14.7234332 68.3753921,18.0120002 C75.3919002,25.5521961 79.2591008,35.8336849 79.9036342,48.6143533 C77.7136268,48.0009844 74.5385379,47.4994141 70.005007,47.4994141 C65.4018664,47.4994141 62.1937305,48.0176253 60.0004419,48.6436507 Z M99.8068266,48.4385694 C98.0490081,47.9112174 95.7165002,47.4994141 92.7024275,47.4994141 C89.3480412,47.4994141 86.7774075,48.0028594 84.9024011,48.6033376 C84.5545875,41.3633807 83.2214579,34.7513242 80.9217627,28.9049829 C78.7282396,23.334974 75.6665886,18.4460695 71.8176693,14.3718652 C70.8253222,13.3246613 69.8364908,12.3852716 68.866175,11.5447898 C85.5396689,16.179159 98.1221334,30.7434491 99.8068266,48.4385694 Z M15.1913058,48.4552102 C16.870374,30.7525899 29.4570572,16.1810341 46.1338324,11.5466648 C45.1632823,12.3871467 44.1728102,13.3246613 43.1821037,14.3718652 C39.3334188,18.4460695 36.2701272,23.334974 34.0803541,28.9049829 C31.7860495,34.7367928 30.454795,41.3286926 30.0997157,48.5447429 C28.2795532,47.9662963 25.7911854,47.4994141 22.5007837,47.4994141 C19.3807731,47.4994141 16.9838119,47.9187175 15.1913058,48.4552102 Z M45.0003911,47.4994141 C40.4668601,47.4994141 37.2882556,48.0047344 35.0963732,48.6199784 C35.7390316,35.837435 39.6062322,25.5524305 46.6246153,18.0122346 C49.6843913,14.7236676 52.7732299,12.6362912 54.9997999,11.4004125 L54.9997999,48.6476351 C52.8044019,48.0213753 49.600016,47.4994141 45.0003911,47.4994141 Z M17.5001418,99.9971875 C16.121309,99.9971875 15.0007583,98.8766231 15.0007583,97.4996484 C15.0007583,96.1231425 16.121309,94.9988281 17.5001418,94.9988281 L27.4995506,94.9988281 C27.4995506,96.3795528 28.6201013,97.4996484 30.0008091,97.4996484 C31.3815169,97.4996484 32.5001925,96.3795528 32.5001925,94.9988281 L37.5006001,94.9988281 C37.5006001,96.3795528 38.6192757,97.4996484 39.9999835,97.4996484 C41.3806913,97.4996484 42.4991326,96.3795528 42.4991326,94.9988281 L47.4997745,94.9988281 C47.4997745,96.3795528 48.6184502,97.4996484 49.999158,97.4996484 C51.3798658,97.4996484 52.5004165,96.3795528 52.5004165,94.9988281 L57.4991834,94.9988281 C57.4991834,96.3795528 58.617859,97.4996484 60.0004419,97.4996484 C61.3809153,97.4996484 62.4995909,96.3795528 62.4995909,94.9988281 L67.5002329,94.9988281 C67.5002329,96.3795528 68.6207835,97.4996484 70.001257,97.4996484 C71.3819647,97.4996484 72.4987654,96.3795528 72.4987654,94.9988281 L77.5012823,94.9988281 C77.5012823,96.3795528 78.6183174,97.4996484 79.9987908,97.4996484 C81.3792642,97.4996484 82.5000493,96.3795528 82.5000493,94.9988281 L84.7852132,94.9988281 C85.4845906,94.9988281 86.1549054,94.7058548 86.6271726,94.1895186 L110.653973,67.9248113 C111.13374,67.4012094 111.789289,67.1117517 112.499682,67.1117517 C113.125934,67.1117517 113.726405,67.3461304 114.187891,67.7673089 C115.206019,68.7010735 115.275629,70.2826607 114.345391,71.3008016 L88.0885057,99.9971875 L17.5001418,99.9971875 Z M83.880757,112.763559 L79.9990252,114.704449 L76.1172933,112.763559 C75.4141659,112.411991 74.586585,112.411991 73.8834576,112.763559 L70.0017257,114.704449 L66.1199938,112.763559 C65.4131164,112.411991 64.5855355,112.411991 63.8824081,112.763559 L60.0009106,114.704449 L56.1173037,112.763559 C55.4141763,112.411991 54.5865954,112.411991 53.881593,112.763559 L49.9998611,114.704449 L46.1181292,112.763559 C45.4150019,112.411991 44.5855459,112.411991 43.8824186,112.763559 L40.0006867,114.704449 L36.1189548,112.763559 C35.4139524,112.411991 34.5863715,112.411991 33.8834785,112.763559 L30.0017466,114.704449 L26.1200147,112.763559 C25.766576,112.587775 25.3838403,112.499883 25.001339,112.499883 L25.001339,104.999766 L85.0022452,104.999766 L85.0022452,112.499883 C84.616697,112.499883 84.2323207,112.587775 83.880757,112.763559 Z" id="Shape"></path>
            </g>
        </g>
    </g>
</svg>