<?xml version="1.0" encoding="UTF-8" standalone="no"?>
<svg width="22px" height="18px" viewBox="0 0 22 18" version="1.1" xmlns="http://www.w3.org/2000/svg" xmlns:xlink="http://www.w3.org/1999/xlink">
    <!-- Generator: Sketch 41.2 (35397) - http://www.bohemiancoding.com/sketch -->
    <title>back-icon</title>
    <desc>Created with Sketch.</desc>
    <defs></defs>
    <g id="Page-1" stroke="none" stroke-width="1" fill="none" fill-rule="evenodd">
        <g id="Assets" transform="translate(-305.000000, -101.000000)" fill="#FFFFFF">
            <g id="back-icon" transform="translate(305.000000, 101.000000)">
                <path d="M20.6418735,7.75398462 L3.7092068,7.75398462 L9.45962655,1.89096923 C9.88387346,1.45841538 9.88360186,0.757246154 9.45962655,0.324415385 C9.03537964,-0.108138462 8.34767593,-0.108138462 7.92315742,0.324415385 L0.318219144,8.07826154 C-0.10602777,8.51081538 -0.10602777,9.21226154 0.317947539,9.64453846 L7.92288581,17.3983846 C8.13500927,17.6146615 8.41313272,17.7229385 8.69125618,17.7229385 C8.96910803,17.7229385 9.24723149,17.6146615 9.45962655,17.3981077 C9.88387346,16.9658308 9.88360186,16.2643846 9.45962655,15.8321077 L3.70893519,9.96936923 L20.6418735,9.96936923 C21.2418488,9.96936923 21.7285648,9.47312308 21.7282932,8.86167692 C21.7282932,8.24995385 21.2418488,7.75398462 20.6418735,7.75398462 Z" id="Shape"></path>
            </g>
        </g>
    </g>
</svg>