<?xml version="1.0" encoding="UTF-8" standalone="no"?>
<svg width="43px" height="43px" viewBox="0 0 43 43" version="1.1" xmlns="http://www.w3.org/2000/svg" xmlns:xlink="http://www.w3.org/1999/xlink">
    <!-- Generator: Sketch 41.2 (35397) - http://www.bohemiancoding.com/sketch -->
    <title>Arrow</title>
    <desc>Created with Sketch.</desc>
    <defs>
        <linearGradient x1="0%" y1="0%" x2="100%" y2="100%" id="linearGradient-1">
            <stop stop-color="#49B4E7" offset="0%"></stop>
            <stop stop-color="#3497D0" offset="100%"></stop>
        </linearGradient>
        <rect id="path-2" x="0" y="0" width="33" height="33" rx="16.5"></rect>
        <filter x="-50%" y="-50%" width="200%" height="200%" filterUnits="objectBoundingBox" id="filter-3">
            <feOffset dx="0" dy="2" in="SourceAlpha" result="shadowOffsetOuter1"></feOffset>
            <feGaussianBlur stdDeviation="2.5" in="shadowOffsetOuter1" result="shadowBlurOuter1"></feGaussianBlur>
            <feColorMatrix values="0 0 0 0 0.215686275   0 0 0 0 0.568627451   0 0 0 0 0.82745098  0 0 0 0.311311141 0" type="matrix" in="shadowBlurOuter1"></feColorMatrix>
        </filter>
    </defs>
    <g id="Page-1" stroke="none" stroke-width="1" fill="none" fill-rule="evenodd">
        <g id="Assets" transform="translate(-343.000000, -34.000000)">
            <g id="Arrow" transform="translate(348.000000, 37.000000)">
                <g id="Rectangle-3">
                    <use fill="black" fill-opacity="1" filter="url(#filter-3)" xlink:href="#path-2"></use>
                    <use fill="url(#linearGradient-1)" fill-rule="evenodd" xlink:href="#path-2"></use>
                </g>
                <path d="M22,16.4999995 C22,16.3677347 21.9338492,16.2189379 21.8346219,16.1197391 L14.1280072,8.41532976 C14.02878,8.3161319 13.8799406,8.25 13.7476379,8.25 C13.6153352,8.25 13.4664948,8.3161319 13.3672686,8.41532976 L12.5403781,9.2419835 C12.4411518,9.34118235 12.375,9.48997913 12.375,9.62224393 C12.375,9.75450872 12.4411518,9.9033065 12.5403781,10.0025044 L19.039734,16.4999995 L12.5403781,22.9974947 C12.4411518,23.0966935 12.375,23.2454903 12.375,23.3777551 C12.375,23.5265529 12.4411518,23.6588177 12.5403781,23.7580155 L13.3672686,24.5846693 C13.4664948,24.6838671 13.6153352,24.75 13.7476379,24.75 C13.8799406,24.75 14.02878,24.6838671 14.1280072,24.5846693 L21.8346219,16.8802599 C21.9338492,16.7810621 22,16.6322643 22,16.4999995 L22,16.4999995 Z" id="Shape" fill="#FFFFFF"></path>
            </g>
        </g>
    </g>
</svg>